# xmcd
#
# Track frame offsets:
#	150
#	21894
#	41994
#	63069
#	85119
#	102369
#	122694
#	140394
#	157944
#	175644
#	200094
#	211344
#	233019
#	252669
#	273894
#	291697
#	300247
#	318922
#	341422
#
# Disc length: 4794 seconds
#
# Revision: 0
# Processed by: cddbd v1.5.1PL2 Copyright (c) Steve Scherf et al.
# Submitted via: dBpowerAMP V4.0
#
DISCID=0b12b813
DTITLE=Angie Stone - Compilation Album
DYEAR=1900
DGENRE=Mixed Genre
TTITLE0=Bring Your Heart
TTITLE1=Brotha
TTITLE2=Pissed Off
TTITLE3=More Than A Woman
TTITLE4=Snowflakes
TTITLE5=Wish I Didn't Miss You
TTITLE6=Easier Said Than Done
TTITLE7=Bottles And Cans
TTITLE8=Ingredients Of Love, The - Musiq Soulchild
TTITLE9=What U Dyin' For
TTITLE10=Makings Of You (interlude)
TTITLE11=Mad Issues
TTITLE12=If It Wasn't
TTITLE13=20 Dollars
TTITLE14=Life Goes On
TTITLE15=Heat, The (outro)
TTITLE16=(untitled) (bonus track)
TTITLE17=Soul Insurance
TTITLE18=Time of the Month [*]
EXTD=
EXTT0=
EXTT1=
EXTT2=
EXTT3=
EXTT4=
EXTT5=
EXTT6=
EXTT7=
EXTT8=
EXTT9=
EXTT10=
EXTT11=
EXTT12=
EXTT13=
EXTT14=
EXTT15=
EXTT16=
EXTT17=
EXTT18=
PLAYORDER=
